<?xml version="1.0" standalone="no"?>
<!DOCTYPE svg PUBLIC "-//W3C//DTD SVG 20010904//EN"
 "http://www.w3.org/TR/2001/REC-SVG-20010904/DTD/svg10.dtd">
<svg version="1.0" xmlns="http://www.w3.org/2000/svg"
 width="748.000000pt" height="748.000000pt" viewBox="0 0 748.000000 748.000000"
 preserveAspectRatio="xMidYMid meet">
<metadata>
Created by potrace 1.14, written by Peter Selinger 2001-2017
</metadata>
<g transform="translate(0.000000,748.000000) scale(0.100000,-0.100000)"
fill="#000000" stroke="none">
<path d="M3927 7200 c-181 -38 -353 -106 -479 -191 -57 -38 -201 -155 -253
-204 -11 -11 -49 -45 -84 -75 -35 -30 -71 -62 -80 -71 -9 -8 -49 -44 -90 -80
-41 -35 -82 -71 -91 -79 -9 -8 -46 -42 -84 -75 -37 -33 -78 -69 -90 -80 -13
-11 -53 -47 -90 -80 -38 -33 -86 -76 -107 -96 -21 -20 -66 -60 -100 -90 -34
-30 -74 -65 -89 -79 -15 -14 -47 -42 -71 -63 -170 -149 -227 -203 -284 -268
-57 -66 -76 -89 -69 -89 3 0 -1 -7 -10 -15 -16 -16 -96 -158 -100 -178 -2 -7
-9 -25 -15 -42 -13 -30 -39 -113 -47 -147 -2 -10 -7 -28 -10 -40 -20 -80 -26
-309 -11 -403 13 -76 15 -90 17 -92 3 -4 5 -12 14 -63 5 -25 12 -52 17 -61 4
-8 10 -26 12 -40 11 -65 101 -234 163 -306 11 -12 28 -32 38 -45 38 -47 106
-117 106 -110 0 4 5 -1 11 -10 5 -10 29 -31 53 -47 l44 -30 23 20 c13 11 38
33 54 47 17 15 82 72 145 127 63 55 143 127 177 161 l63 61 -57 40 c-70 49
-97 74 -144 133 -151 186 -162 471 -28 682 40 62 238 264 292 296 15 9 27 22
27 29 0 7 3 13 8 13 7 0 22 12 123 102 35 31 75 66 89 78 22 19 104 91 174
155 13 11 51 45 86 75 35 30 71 62 80 70 91 80 158 139 181 160 37 34 138 123
169 150 14 12 39 34 55 48 17 15 57 49 90 75 33 26 65 51 71 56 16 13 154 71
154 65 0 -2 9 0 20 6 52 28 301 29 345 2 5 -4 17 -8 25 -10 8 -1 20 -4 25 -5
44 -12 169 -92 220 -142 100 -98 149 -178 180 -297 11 -45 14 -174 5 -248 -7
-55 -74 -198 -117 -250 -37 -45 -149 -150 -268 -250 -27 -23 -54 -47 -60 -54
-5 -6 -26 -24 -45 -40 -49 -40 -165 -144 -215 -191 -25 -24 -40 -47 -38 -58 5
-28 11 -52 13 -52 1 0 3 -7 5 -15 41 -161 54 -213 59 -255 4 -27 10 -66 13
-85 3 -19 6 -91 8 -160 1 -78 6 -125 12 -125 11 0 64 42 133 105 19 18 61 55
94 83 32 29 73 66 91 82 17 17 65 59 106 95 40 36 83 74 95 85 13 12 53 48 90
80 37 33 85 77 107 98 22 20 43 37 46 37 19 1 213 201 251 260 8 12 20 28 25
34 21 22 53 72 88 136 111 205 160 456 133 675 -4 33 -9 71 -10 85 -2 14 -6
36 -11 49 -4 12 -8 33 -10 44 -8 57 -71 211 -126 307 -35 61 -126 176 -189
236 -70 69 -211 175 -265 200 -16 7 -37 18 -45 24 -12 8 -52 26 -80 35 -3 1
-18 7 -35 14 -36 15 -118 41 -125 39 -3 -1 -14 3 -25 9 -11 6 -36 14 -55 17
-19 3 -46 8 -60 12 -14 3 -104 7 -200 9 -139 2 -193 -1 -263 -15z"/>
<path d="M3224 5057 c-6 -7 -26 -25 -45 -42 -19 -16 -54 -48 -79 -70 -25 -22
-77 -67 -115 -100 -92 -81 -185 -169 -185 -177 0 -4 15 -16 33 -27 52 -32 122
-94 154 -137 41 -53 73 -105 73 -117 0 -7 4 -17 9 -23 9 -9 27 -61 37 -105 12
-51 10 -185 -2 -244 -35 -165 -101 -267 -267 -410 -32 -27 -75 -66 -95 -85
-41 -39 -205 -188 -238 -217 -12 -10 -61 -55 -110 -100 -49 -45 -100 -91 -114
-103 -32 -27 -139 -124 -189 -170 -21 -19 -78 -71 -127 -115 -48 -44 -99 -91
-113 -104 -14 -13 -57 -51 -95 -85 -38 -33 -74 -66 -80 -71 -40 -37 -173 -110
-216 -119 -14 -3 -45 -10 -70 -16 -87 -22 -162 -20 -299 5 -31 5 -130 49 -176
78 -89 55 -195 159 -210 206 -3 12 -11 21 -17 21 -6 0 -8 3 -5 7 4 3 0 17 -9
31 -42 64 -69 253 -50 347 26 128 76 221 170 316 121 122 268 257 453 416 56
49 105 95 108 104 3 9 -5 50 -19 90 -28 84 -42 138 -51 188 -3 19 -7 37 -9 40
-7 11 -19 165 -22 266 -1 55 -3 103 -3 108 -2 19 -17 9 -144 -106 -89 -80
-110 -99 -197 -177 -40 -36 -85 -76 -100 -90 -15 -14 -69 -63 -120 -110 -52
-47 -101 -92 -110 -100 -9 -8 -54 -49 -100 -90 -139 -123 -265 -261 -293 -320
-4 -8 -16 -28 -26 -45 -51 -79 -109 -221 -130 -315 -5 -25 -13 -58 -17 -75
-10 -47 -12 -324 -2 -369 5 -23 11 -56 14 -74 2 -18 9 -42 14 -53 6 -10 8 -19
6 -19 -18 0 86 -236 141 -322 80 -125 218 -267 328 -338 39 -25 71 -48 73 -52
2 -5 9 -8 15 -8 7 0 34 -11 62 -24 96 -47 213 -89 280 -101 17 -2 41 -7 55
-10 14 -3 35 -8 48 -11 12 -2 34 -7 50 -10 30 -6 33 -6 212 1 107 4 185 16
275 41 11 3 29 7 40 9 36 7 153 54 222 89 99 50 176 104 297 211 72 64 281
250 302 270 12 11 39 36 61 55 50 45 217 196 258 235 18 17 59 54 92 83 33 28
80 71 105 95 25 23 80 73 123 112 42 38 90 81 105 95 15 14 53 48 84 75 96 84
159 147 209 210 26 33 52 65 57 72 6 7 10 17 10 22 0 5 6 16 13 23 16 17 80
149 100 209 21 61 45 154 54 209 9 56 9 343 0 388 -4 17 -9 44 -12 60 -18 104
-47 188 -101 290 -46 88 -157 237 -216 289 -23 21 -51 48 -63 59 -42 42 -81
54 -101 31z"/>
<path d="M4208 3912 c-11 -2 -17 -17 -20 -47 -3 -49 -2 -3093 2 -3412 l3 -203
543 0 544 0 1 33 c0 17 0 534 -1 1147 0 613 0 1123 0 1133 0 9 0 23 0 30 1 12
1 145 0 182 -1 57 1 80 9 88 4 4 226 7 492 6 637 -1 588 0 593 -18 2 -9 3 -68
2 -131 l-1 -115 -101 -1 c-55 0 -106 -4 -112 -8 -6 -3 -13 -3 -15 1 -4 6 -392
9 -562 4 l-30 -1 3 -142 c1 -79 2 -165 1 -193 0 -27 0 -61 1 -75 1 -14 1 -32
1 -40 -1 -8 -1 -49 -1 -90 1 -41 1 -79 1 -85 0 -28 0 -133 -2 -243 0 -46 1
-86 4 -88 3 -3 1 -21 -3 -40 -6 -25 -5 -37 4 -40 23 -9 86 -10 86 -2 0 5 8 5
18 1 20 -10 64 -9 81 1 6 4 11 3 11 -1 0 -10 53 -9 69 2 6 3 11 2 11 -2 0 -9
57 -9 66 0 3 3 20 1 38 -3 19 -4 40 -4 47 1 7 4 17 5 23 2 14 -9 106 -9 106
-1 0 4 7 5 16 1 25 -9 147 -10 167 0 9 4 17 4 17 -1 0 -8 35 -7 77 2 13 3 25
2 27 -2 4 -7 31 -7 116 2 101 10 152 18 227 37 43 10 86 21 95 23 9 3 26 10
37 16 12 6 21 9 21 6 0 -8 175 87 211 114 89 68 232 245 232 287 0 7 3 13 7
13 7 0 58 143 66 183 2 10 5 26 8 35 22 74 30 195 30 457 0 250 -4 327 -28
455 -34 190 -139 377 -276 494 -58 50 -161 113 -220 135 -19 7 -44 17 -55 22
-50 21 -265 68 -320 69 -107 2 -2355 4 -2367 2z"/>
</g>
</svg>
